<svg width="20" height="18" viewBox="0 0 20 18" fill="none" xmlns="http://www.w3.org/2000/svg">
<path fill-rule="evenodd" clip-rule="evenodd" d="M10.1835 0C5.09124 0 0.960846 4.13039 0.960846 9.22266C0.960846 13.2965 3.62014 16.7479 7.24131 17.9927C7.69396 18.0493 7.8637 17.7664 7.8637 17.54C7.8637 17.3137 7.8637 16.7479 7.8637 15.9558C5.31756 16.5216 4.75176 14.711 4.75176 14.711C4.35569 13.636 3.7333 13.3531 3.7333 13.3531C2.88459 12.7873 3.78988 12.7873 3.78988 12.7873C4.69518 12.8438 5.2044 13.7491 5.2044 13.7491C6.05311 15.1636 7.35447 14.7676 7.8637 14.5413C7.92028 13.9189 8.20318 13.5228 8.42951 13.2965C6.3926 13.0702 4.24253 12.278 4.24253 8.71344C4.24253 7.69498 4.58201 6.90285 5.2044 6.22388C5.14782 6.05414 4.80834 5.09227 5.31756 3.84749C5.31756 3.84749 6.10969 3.62117 7.8637 4.80936C8.59925 4.58304 9.39138 4.52646 10.1835 4.52646C10.9756 4.52646 11.7678 4.63962 12.5033 4.80936C14.2573 3.62117 15.0495 3.84749 15.0495 3.84749C15.5587 5.09227 15.2192 6.05414 15.1626 6.28046C15.7284 6.90285 16.1245 7.75156 16.1245 8.77002C16.1245 12.3346 13.9744 13.0702 11.9375 13.2965C12.277 13.5794 12.5599 14.1452 12.5599 14.9939C12.5599 16.2387 12.5599 17.2006 12.5599 17.54C12.5599 17.7664 12.7296 18.0493 13.1823 17.9927C16.86 16.7479 19.4628 13.2965 19.4628 9.22266C19.4062 4.13039 15.2758 0 10.1835 0Z" fill="#93979E"/>
</svg>
