<svg width="19" height="18" viewBox="0 0 19 18" fill="none" xmlns="http://www.w3.org/2000/svg">
<path d="M9.46009 1.36709C10.9697 1.36709 12.4455 1.81475 13.7007 2.65347C14.9559 3.49218 15.9343 4.68428 16.512 6.07901C17.0897 7.47374 17.2408 9.00847 16.9463 10.4891C16.6518 11.9697 15.9248 13.3298 14.8574 14.3973C13.7899 15.4648 12.4298 16.1917 10.9492 16.4862C9.46855 16.7808 7.93383 16.6296 6.5391 16.0519C5.14436 15.4742 3.95227 14.4958 3.11355 13.2406C2.27484 11.9854 1.82718 10.5096 1.82718 9C1.82718 6.97562 2.63135 5.03416 4.0628 3.60272C5.49425 2.17127 7.43571 1.36709 9.46009 1.36709ZM9.46009 0C7.68005 0 5.94 0.527841 4.45995 1.51677C2.97991 2.50571 1.82636 3.91131 1.14517 5.55585C0.463983 7.20038 0.285753 9.00998 0.63302 10.7558C0.980286 12.5016 1.83745 14.1053 3.09613 15.364C4.3548 16.6226 5.95844 17.4798 7.70427 17.8271C9.4501 18.1743 11.2597 17.9961 12.9042 17.3149C14.5488 16.6337 15.9544 15.4802 16.9433 14.0001C17.9322 12.5201 18.4601 10.78 18.4601 9C18.4574 6.61388 17.5083 4.32627 15.821 2.63904C14.1338 0.951797 11.8462 0.00271372 9.46009 0Z" fill="#93979E"/>
<path d="M14.5457 8.99997C14.5449 8.78191 14.4801 8.56888 14.3593 8.38733C14.2385 8.20579 14.067 8.06372 13.8662 7.97878C13.6654 7.89383 13.444 7.86975 13.2296 7.90952C13.0152 7.9493 12.8172 8.05117 12.6602 8.2025C11.8992 7.65338 10.8511 7.29908 9.68337 7.25807L10.1903 4.8725L11.8479 5.22452C11.8569 5.4185 11.9363 5.60254 12.0713 5.74213C12.2063 5.88171 12.3876 5.96724 12.5812 5.98267C12.7747 5.99811 12.9673 5.94238 13.1227 5.82595C13.2781 5.70952 13.3857 5.54039 13.4253 5.35028C13.4649 5.16018 13.4337 4.96216 13.3377 4.79338C13.2417 4.6246 13.0874 4.49665 12.9037 4.43355C12.7201 4.37044 12.5197 4.37651 12.3402 4.45061C12.1607 4.52471 12.0145 4.66176 11.9288 4.83604L10.081 4.443C10.0555 4.43748 10.0292 4.43705 10.0036 4.44174C9.978 4.44643 9.95357 4.45616 9.93173 4.47035C9.88751 4.4991 9.8564 4.54413 9.84515 4.59566L9.27553 7.25807C8.09413 7.29111 7.02667 7.64199 6.25882 8.2025C6.14109 8.09315 6.00107 8.01062 5.84839 7.96059C5.69571 7.91055 5.534 7.8942 5.37439 7.91266C5.21479 7.93112 5.06108 7.98395 4.92385 8.06751C4.78662 8.15107 4.66912 8.26338 4.57946 8.39671C4.4898 8.53003 4.4301 8.6812 4.40447 8.83982C4.37884 8.99843 4.38788 9.16071 4.43099 9.31549C4.47409 9.47027 4.55023 9.61387 4.65415 9.73641C4.75808 9.85894 4.88733 9.95749 5.033 10.0253C5.01541 10.1384 5.00665 10.2526 5.00679 10.3671C5.00679 12.0759 7.00046 13.4681 9.45894 13.4681C11.9174 13.4681 13.9122 12.0793 13.9122 10.3671C13.9121 10.2549 13.9033 10.1429 13.886 10.0321C14.0849 9.94344 14.2534 9.7984 14.3706 9.61494C14.4878 9.43148 14.5487 9.21767 14.5457 8.99997ZM6.91274 9.79743C6.91274 9.63971 6.95951 9.48553 7.04714 9.35438C7.13477 9.22324 7.25931 9.12103 7.40503 9.06067C7.55075 9.00031 7.7111 8.98452 7.86579 9.01529C8.02048 9.04606 8.16258 9.12201 8.27411 9.23354C8.38563 9.34507 8.46159 9.48716 8.49236 9.64186C8.52313 9.79655 8.50733 9.95689 8.44698 10.1026C8.38662 10.2483 8.2844 10.3729 8.15326 10.4605C8.02212 10.5481 7.86794 10.5949 7.71021 10.5949C7.49871 10.5949 7.29587 10.5109 7.14632 10.3613C6.99676 10.2118 6.91274 10.0089 6.91274 9.79743ZM11.3558 11.8971C10.8124 12.4382 9.77337 12.4803 9.46692 12.4803C9.16046 12.4803 8.12148 12.4382 7.5792 11.8971C7.56005 11.8779 7.54486 11.8552 7.53449 11.8301C7.52413 11.8051 7.5188 11.7783 7.5188 11.7512C7.5188 11.7241 7.52413 11.6973 7.53449 11.6723C7.54486 11.6473 7.56005 11.6246 7.5792 11.6054C7.59835 11.5863 7.62108 11.5711 7.6461 11.5607C7.67112 11.5503 7.69794 11.545 7.72502 11.545C7.7521 11.545 7.77892 11.5503 7.80394 11.5607C7.82896 11.5711 7.85169 11.5863 7.87084 11.6054C8.21262 11.9472 8.94401 12.0691 9.46578 12.0691C9.98755 12.0691 10.7189 11.9472 11.0607 11.6054C11.0994 11.5663 11.152 11.5441 11.207 11.5438C11.2621 11.5435 11.3149 11.565 11.3541 11.6037C11.3932 11.6424 11.4154 11.695 11.4157 11.75C11.416 11.805 11.3945 11.8579 11.3558 11.8971ZM11.21 10.5949C11.0522 10.5949 10.8981 10.5481 10.7669 10.4605C10.6358 10.3729 10.5336 10.2483 10.4732 10.1026C10.4128 9.95689 10.397 9.79655 10.4278 9.64186C10.4586 9.48716 10.5345 9.34507 10.6461 9.23354C10.7576 9.12201 10.8997 9.04606 11.0544 9.01529C11.2091 8.98452 11.3694 9.00031 11.5151 9.06067C11.6609 9.12103 11.7854 9.22324 11.873 9.35438C11.9607 9.48553 12.0074 9.63971 12.0074 9.79743C12.0074 10.0089 11.9234 10.2118 11.7739 10.3613C11.6243 10.5109 11.4215 10.5949 11.21 10.5949Z" fill="#93979E"/>
</svg>
