<svg width="19" height="16" viewBox="0 0 19 16" fill="none" xmlns="http://www.w3.org/2000/svg">
<path d="M16.5702 4.23421C16.5815 4.39695 16.5815 4.55969 16.5815 4.72393C16.5815 9.72836 12.7717 15.5 5.80538 15.5V15.497C3.74751 15.5 1.73239 14.9105 0 13.7991C0.299231 13.8351 0.599962 13.8531 0.901443 13.8539C2.60684 13.8554 4.26348 13.2831 5.60515 12.2295C3.9845 12.1987 2.56334 11.142 2.06687 9.59937C2.63458 9.70887 3.21955 9.68637 3.77676 9.53413C2.00987 9.17715 0.738703 7.62475 0.738703 5.82186C0.738703 5.80536 0.738703 5.78961 0.738703 5.77386C1.26517 6.0671 1.85463 6.22984 2.45759 6.24783C0.79345 5.13565 0.280482 2.92179 1.28542 1.1909C3.2083 3.557 6.04537 4.99541 9.09093 5.14765C8.7857 3.83224 9.20267 2.45382 10.1866 1.52913C11.712 0.0952223 14.1111 0.168718 15.545 1.69337C16.3932 1.52613 17.2062 1.2149 17.9501 0.77393C17.6674 1.65062 17.0757 2.39533 16.2852 2.86855C17.0359 2.78005 17.7694 2.57907 18.4601 2.27234C17.9516 3.03429 17.3112 3.698 16.5702 4.23421Z" fill="#93979E"/>
</svg>
